<?xml version="1.0" encoding="utf-8"?>
<!-- Generator: Adobe Illustrator 15.0.2, SVG Export Plug-In . SVG Version: 6.00 Build 0)  -->
<!DOCTYPE svg PUBLIC "-//W3C//DTD SVG 1.1//EN" "http://www.w3.org/Graphics/SVG/1.1/DTD/svg11.dtd">
<svg version="1.1" id="Layer_1" xmlns="http://www.w3.org/2000/svg" xmlns:xlink="http://www.w3.org/1999/xlink" x="0px" y="0px"
	 width="497.169px" height="480.5px" viewBox="-20 -4.5 497.169 480.5" enable-background="new -20 -4.5 497.169 480.5"
	 xml:space="preserve">
<path fill-rule="evenodd" clip-rule="evenodd" d="M461.109,237.43c4.983-15.543,10.938-32.223-6.552-45.861
	c5.72-10.002,7.158-45.252-9.177-55.118c11.587-18.802-12.756-36.195-28.446-40.732c5.771-14.344-28.824-45.142-46.604-37.609
	c1.373-17.553-43.741-27.874-63.553-14.907c-7.309-7.017-16.109-14.468-28.937-14.336c-8.055,0.081-16.255,0.318-26.073,4.064
	c-5.597,2.136-9.217,6.707-10.782,6.775c-0.9,0.038-15.44-9.738-28.355-7.44c-10.415,1.853-17.068,9.183-21.745,16.439
	c-5.095-2.504-21.299-2.583-38.604,3.392c-12.673,4.373-17.838,14.959-20.852,22.854c-10.36-1.729-18.231,1.031-24.664,6.233
	c-4.514,3.647-8.528,8.391-11.018,12.597c-2.079,3.511-3.047,10.232-0.866,13.719c-8.276,2.393-15.566,4.336-22.774,13.67
	c-3.477,4.504-6.349,15.001-6.508,18.908c-0.231,5.693,3.875,10.086,6.309,12.842c-5.076,3.066-9.966,6.607-13.319,12.427
	c-2.617,4.544-4.782,11.529-5.418,16.384c-1.053,8.024,2.086,11.622,5.497,15.642c-8.758,6.829-16.447,12.668-19.611,27.2
	c-1.604,7.37,3.814,12.746,6.886,17.337c-6.527,5.673-12.647,13.336-13.212,32.77c-0.158,5.403,4.896,14.812,9.561,16.789
	c-3.802,7.548-8.017,16.505-5.05,30.915c1.148,5.578,6.985,11.33,13.739,12.424c-0.068,11.755-2.497,18.188,0.903,28.218
	c2.615,7.72,12.209,17.104,23.674,18.632c0.935,7.884,0.814,15.969,4.867,20.795c7.787,9.271,21.806,8.183,28.367,8.03
	c4.325,7.941,7.144,11.69,14.024,17.506c8.151,6.891,24.938,7.155,30.264,6.497c4.582,9.965,15.146,14.637,27.602,16.264
	c6.238,0.816,12.442,0.621,18.749,0.118c4.535,6.281,11.731,10.868,20.248,13.896c8.027,2.853,17.635,4.71,27.251,1.704
	c2.291-0.717,12.337-5.032,14.175-4.999c0.924,0.015,2.654,1.847,3.811,2.239c4.149,1.413,17.846,4.017,28.797-0.305
	c9.788-3.864,17.422-7.474,24.92-12.714c17.014,6.695,68.566-4.924,66.94-26.201c7.008,0.164,26.312-3.831,34.63-13.731
	c4.33-5.155,9.83-19.729,10.827-28.15c21.89-1.998,23.446-34.997,21.264-45.749c24.685-13.399,13.587-47.417,6.44-52.282
	C469.355,280.83,472.16,247.031,461.109,237.43z M448.437,334.537c1.902,4.986,2.188,45.46-20.621,42.865
	c-3.97,30.368-26.349,47.713-41.996,42.068c-3.67,7.24-7.936,15.76-21.067,22.082c-14.244,6.861-35.784,11.863-43.057,6.299
	c-1.155-0.886-0.347-3.003-1.842-3.275c-0.76-0.137-2.773,2.06-4.183,3.102c-1.637,1.213-3.341,2.378-4.686,3.104
	c-9.494,5.117-21.476,11.878-35.82,10.685c-5.174-0.431-11.176-0.681-12.051-5.687c-7.495,4.078-17.814,9.934-29.627,8.099
	c-5.059-0.786-10.286-2.334-15.23-3.791c-4.165-1.228-9.085-3.706-12.011-6.091c-2.383-1.938-3.542-5.503-5.563-7.523
	c-13.295,3.22-29.59,0.378-38.498-5.491c-3.217-2.121-5.374-6.985-5.522-11.202c-1.443-0.766-2.821-0.037-4.185,0.174
	c-22.052,3.419-35.367-11.594-42.68-26.021c-14.649,5.283-29.468-0.473-30.63-14.648c-0.36-4.392,0.31-7.966-0.335-12.408
	c-16.207,1.251-22.003-8.342-24.93-21.776c-1.306-5.999-0.45-18.19,1.33-22.858c-5.258-1.036-12.18-2.998-14.105-6.83
	c-5.156-10.27-1.354-23.231,3.226-31.425c0.527-0.946,2.479-1.595,2.51-2.587c0.033-1.037-3.104-2.597-4.017-3.445
	c-3.642-3.385-7.79-7.912-7.924-13.651c-0.26-10.978,4.642-20.038,8.928-26.673c0.69-1.068,5.317-5.548,5.356-6.375
	c0.06-1.279-2.829-3.628-3.683-4.827c-1.184-1.665-2.472-3.94-3.013-5.516c-3.065-8.934,2.277-15.439,6.529-20.851
	c3.747-4.769,7.961-9.909,14.729-12.063c-0.433-2.122-1.997-2.242-2.995-2.988c-3.018-2.25-6.111-7.827-5.566-12.921
	c0.856-7.98,7.75-19.777,11.461-23.373c2.571-2.49,6.817-3.979,8.816-6.384c-2.689-2.166-5.879-3.66-6.862-7.239
	c-2.189-7.963,1.934-16.691,4.747-21.739c5.058-9.072,15.799-12.972,27.055-14.622c-0.632-1.473-2.633-1.784-3.514-2.931
	c-1.982-2.574-0.94-7.863,1.004-10.684c6.252-9.066,17.201-21.902,33.475-17.75c2.413-1.539,2.137-5.108,3.348-7.065
	c5.3-8.56,11.939-14.279,23.799-17.098c10.365-2.462,21.228-7.42,29.093-3.937c0.883,0.392,2.435,1.646,3.179,1.55
	c1.045-0.131,2.675-3.285,4.019-4.996c3.344-4.271,8.714-8.256,13.722-10.341c3.961-1.646,8.183-1.944,13.257-1.379
	c7.115,0.793,10.791,3.321,16.204,5.86c1.268,0.596,2.069,1.651,3.012,1.551c0.865-0.091,4.119-2.297,5.344-2.934
	c2.075-1.079,3.286-2.03,4.867-2.926c10.957-6.213,33.235-4.969,36.764-3.931c3.914,1.152,12.461,7.88,15.324,10.268
	c1.006,0.839,2.572,3.515,3.515,2.931c18.391-11.413,61.215-2.591,61.268,13.337c0.871,1.796,0.91,1.938,3.662,1.437
	c16.751-3.054,47.729,22.029,40.891,37.606c16.536,2.425,41.342,21.411,29.813,40.77c17.464,13.931,13.476,38.862,8.106,55.247
	c15.228,4.154,16.247,32.476,7.324,44.482c6.015,3.203,13.98,29.575-3.05,46.492C461.864,287.863,473.89,323.236,448.437,334.537z"
	/>
<path fill-rule="evenodd" clip-rule="evenodd" d="M121.503,51.658c-3.679,3.78-7.696,9.605-13.898,11.454
	C94.963,66.88,78.831,61.224,82.07,46.177c2.554-11.863,12.381-22.358,23.951-24.14c3.842-0.591,8.282,0.076,10.911,1.563
	c3.461,1.956,7.626,6.604,8.479,10.081C127.326,41.494,124.318,47.089,121.503,51.658z M101.954,24.127
	c-7.46,3.375-15.214,11.336-17.105,19.711c-3.752,16.628,15.001,19.988,26.392,14.5c5.306-2.558,10.498-9.081,12.38-13.521
	c2.716-6.406-0.128-12.65-2.769-16.129c-2.663-3.507-7.991-6.443-14.173-5.7C105.19,23.166,103.383,23.48,101.954,24.127z"/>
<path fill-rule="evenodd" clip-rule="evenodd" d="M-5.687,8.396c7.246-0.683,13.685,6.542,8.96,12.218
	c-2.46,2.956-10.115,4.135-13.685,1.467C-15.479,18.291-11.657,8.606-5.687,8.396z M3.327,13.81
	c-0.354-1.384-3.422-3.567-4.94-3.947c-6.014-1.509-10.85,3.969-8.797,8.96C-6.44,24.291,5.048,20.536,3.327,13.81z"/>
<path fill-rule="evenodd" clip-rule="evenodd" d="M55.142,14.201c3.729-4.092,5.941-4.415,9.287-5.627
	c3.666-1.329,9.899,1.166,11.767,2.831c1.893,1.69,3.302,6.119,2.775,9.811c-0.826,5.775-5.706,10.904-10.757,12.997
	c-6.072,2.518-14.25,2.096-16.943-3.42C48.297,24.694,51.414,18.288,55.142,14.201z M63.884,10.085
	c-1.334,0.392-4.892,2.676-6.748,4.579c-1.928,1.976-3.972,5.647-4.236,8.797c-0.538,6.422,3.862,9.342,9.612,8.96
	c7.078-0.47,16.392-6.92,14.987-15.64c-0.718-4.464-4.969-7.086-10.1-7.168C66.11,9.593,64.733,9.836,63.884,10.085z"/>
<path fill-rule="evenodd" clip-rule="evenodd" d="M25.189,5.391c5.865-0.744,11.432,1.925,12.997,5.112
	c1.528,3.111-0.377,7.617-2.082,9.388c-1.472,1.527-7.599,5.626-12.218,4.887c-2.412-0.387-5.505-1.947-6.354-4.073
	c-1.585-3.974,0.276-9.61,1.791-11.892C20.295,7.351,22.99,5.67,25.189,5.391z M26.807,6.569c-5.192,0.355-8.188,4.492-8.375,7.853
	c-0.216,3.907,2.054,7.829,6.008,7.662c2.974-0.125,8.066-1.785,10.076-3.397c1.842-1.478,2.49-4.304,2.368-7.743
	C34.635,7.594,31.135,6.273,26.807,6.569z"/>
</svg>
