<?xml version="1.0" encoding="utf-8"?>
<!-- Generator: Adobe Illustrator 15.0.2, SVG Export Plug-In . SVG Version: 6.00 Build 0)  -->
<!DOCTYPE svg PUBLIC "-//W3C//DTD SVG 1.1//EN" "http://www.w3.org/Graphics/SVG/1.1/DTD/svg11.dtd">
<svg version="1.1" id="Layer_1" xmlns="http://www.w3.org/2000/svg" xmlns:xlink="http://www.w3.org/1999/xlink" x="0px" y="0px"
	 width="269.922px" height="125.674px" viewBox="0 0 269.922 125.674" enable-background="new 0 0 269.922 125.674"
	 xml:space="preserve">
<g>
	
		<linearGradient id="SVGID_1_" gradientUnits="userSpaceOnUse" x1="107.2637" y1="141.7383" x2="107.2637" y2="28.4492" gradientTransform="matrix(0.9979 -0.0655 0.0655 0.9979 23.58 -16.0104)">
		<stop  offset="0" style="stop-color:#2E2E2E"/>
		<stop  offset="1" style="stop-color:#000000"/>
	</linearGradient>
	<path fill="url(#SVGID_1_)" d="M49.443,39.726c0,0-1.611,6.346-2.16,7.771c-0.546,1.426-1.569,0.978-2.265,0.589
		c-0.693-0.389-4.332-3.777-11.596-2.855c-11.893,1.512-22.719,16.703-23.326,35.221C9.348,103.344,20.541,117.72,33,114.135
		c14.255-4.1,11.607-26.898,11.607-26.898s-8.734,1.413-10.377,1.383c-1.392-0.023-1.938-1.076-1.988-1.992
		c-0.045-0.857,0.008-4.176,0.165-5.609c0.155-1.434,0.584-1.389,1.861-1.925c1.489-0.626,15.072-6.065,16.377-6.043
		c1.303,0.024,2.713,0.385,2.964,2.077c0.175,1.175,1.495,17.529-0.39,27.139c-2.77,14.135-10.375,20.961-20.938,23.039
		c-15.456,3.039-32.055-12.832-32.279-42.288c-0.165-21.797,10.097-39.89,21.942-45.555c14.792-7.075,24.654-1.104,26.4-0.191
		C50.09,38.183,49.443,39.726,49.443,39.726z M102.932,100.613c-0.146,0.781-0.417,1.429-1.853,1.404c0,0-7.844,0.775-13.222-5.192
		C85.05,93.711,74.281,79.812,70.279,74.63c-0.876,0.366-1.559,0.782-1.559,0.782s0.756,35.057,0.863,36.494
		c0.104,1.436-0.951,2.072-0.951,2.072s-5.522,2.25-6.435,2.234c-0.914-0.016-2.011-0.688-2.054-1.994
		c-0.041-1.305-2.166-77.432-2.135-79.129c0.028-1.695-0.012-3.002,1.956-3.619c7.954-2.498,32.447-8.324,32.86,12.845
		C93.067,56.83,85.486,65,79.062,69.666c3.543,6.082,14.675,24.099,22.162,24.066c1.458-0.006,1.551,0.875,1.537,1.658
		C102.747,96.173,103.076,99.833,102.932,100.613z M83.151,45.19C82.727,33.061,67.13,38.34,67.13,38.34l1.249,25.602
		C68.378,63.942,83.673,60.078,83.151,45.19z M107.516,97.839c0.047,0.886,1.112,2.531,2.848,2.171
		c0.941-0.197,4.454-1.654,5.128-1.846c1.082-0.307,1.509-1.131,1.446-2.438c-0.063-1.306-3.744-69.327-3.81-70.547
		c-0.065-1.217-0.629-1.781-1.58-1.668c-1.037,0.124-6.836,0.967-7.677,1.149c-0.856,0.185-1.362,0.77-1.381,1.902
		C102.47,27.691,107.441,96.484,107.516,97.839z M108.021,18.674c6.441,0.035,7.164-11.534-1.45-11.596
		C97.96,7.013,100.715,18.634,108.021,18.674z M123.374,94.521c0.022,1.053,1.317,1.262,2.017,1.014
		c0.699-0.247,4.269-1.457,4.805-1.753c0.694-0.378,1.095-0.927,1.085-2.198c-0.011-1.316-1.483-49.426-1.483-49.426
		s13.972,27.149,14.138,27.418c0.697,1.131,1.811,0.904,2.353-0.309c0.478-1.064,13.052-29.703,13.052-29.703
		s-0.522,42.714-0.588,43.408c-0.106,1.129,0.747,2.059,1.619,1.986c0.871-0.072,4.844-1.414,5.38-1.646
		c0.965-0.418,1.124-0.873,1.146-2.133c0.016-0.974-0.312-65.241-0.297-66.197c0.018-0.958-0.574-1.926-1.578-1.813
		c-0.738,0.085-3.968,0.885-4.675,1.225c-0.438,0.208-1.022,1.111-1.116,1.545c-0.094,0.434-14.498,37.898-14.498,37.898
		s-15.121-30.892-15.369-31.679c-0.246-0.787-0.802-1.396-1.717-1.28c-0.344,0.043-4.37,0.631-4.888,0.817
		c-1.16,0.415-1.463,1.095-1.431,2.237C121.351,24.628,123.35,93.391,123.374,94.521z M170.262,80.364
		c-0.154,0.923,0.518,1.426,1.214,1.352c0.698-0.075,5.63-1.583,6.417-1.831c0.787-0.246,1.068-0.732,1.079-1.431
		c0.015-0.694,4.673-25.761,4.673-25.761l11.43-3.061c0,0,6.467,23.258,6.778,24.11c0.282,0.778,1.134,0.99,1.921,0.841
		c0.541-0.104,4.96-1.123,5.374-1.341c0.901-0.475,0.87-1.116,0.794-1.814c-0.075-0.698-18.129-60.887-18.41-61.577
		c-0.27-0.664-0.829-1.124-1.614-0.975c-0.598,0.114-5.248,0.906-5.958,1.103c-0.557,0.153-0.986,0.473-1.164,1.286
		C182.704,11.688,170.554,78.628,170.262,80.364z M187.922,22.23l5.762,21.112l-8.773,1.718L187.922,22.23z M225.715,4.293
		c-12.187,1.419-17.82,10.194-17.777,32.6c0.051,26.153,8.287,33.427,16.262,32.782c10.418-0.837,15.785-9.554,16.234-10.417
		c0.45-0.862,0.248-1.79-0.348-2.41c-0.599-0.619-2.674-2.69-3.367-2.964c-0.69-0.272-1.561-0.254-2.099,0.649
		c-0.344,0.578-0.864,5.957-8.062,7.136c-8.111,1.328-10.525-10.146-10.666-24.506c-0.067-7.134-0.146-23.295,9.926-25.056
		c5.689-0.994,8.565,3.352,9.799,4.238c0.723,0.515,1.338,0.61,1.913,0.055c0.619-0.599,2.087-2.4,2.344-3.396
		c0.241-0.93,0.646-3.317-2.187-5.519C235.745,5.974,232.86,3.464,225.715,4.293z M243.221,62.327
		c-0.031,1.701,1.084,2.003,1.957,1.757c0.875-0.245,21.812-5.903,22.426-6.067c0.611-0.164,0.857-0.529,0.83-1.464
		c-0.021-0.701-0.031-3.352-0.021-3.873c0.01-0.521-0.332-0.963-1.113-0.89c-0.785,0.074-15.353,3.451-15.353,3.451l0.609-21.045
		c0,0,13.697-2.11,14.31-2.359c0.613-0.252,0.771-0.553,0.785-1.251c0.011-0.694,0.013-3.305,0.025-4
		c0.012-0.695-0.312-0.854-1.097-0.736c-0.772,0.113-13.935,2.081-13.935,2.081l0.16-19.114c0,0,15.503-2.187,16.028-2.265
		c0.522-0.077,1.014-0.852,1.022-1.373c0.01-0.522,0.104-3.392,0.051-4.067c-0.057-0.693,0.105-1.086-1.287-1.11
		c-1.391-0.024-21.508,2.254-22.293,2.372c-0.689,0.102-0.942,0.352-1.093,1.438c-0.032,0.245,0.409,14.208-0.339,28.075
		C244.064,47.348,243.231,61.683,243.221,62.327z"/>
</g>
</svg>
