<?xml version="1.0" encoding="utf-8"?>
<!-- Generator: Adobe Illustrator 15.0.2, SVG Export Plug-In . SVG Version: 6.00 Build 0)  -->
<!DOCTYPE svg PUBLIC "-//W3C//DTD SVG 1.1//EN" "http://www.w3.org/Graphics/SVG/1.1/DTD/svg11.dtd">
<svg version="1.1" id="Layer_2_1_" xmlns="http://www.w3.org/2000/svg" xmlns:xlink="http://www.w3.org/1999/xlink" x="0px" y="0px"
	 width="280px" height="350px" viewBox="0 0 280 350" enable-background="new 0 0 280 350" xml:space="preserve">
<g id="Layer_3_1_">
	
		<linearGradient id="SVGID_1_" gradientUnits="userSpaceOnUse" x1="-101.915" y1="232.4727" x2="20.7585" y2="455.8015" gradientTransform="matrix(1 0 0 -1 182.5 530)">
		<stop  offset="0" style="stop-color:#FAE3DC"/>
		<stop  offset="1" style="stop-color:#EDD7D0"/>
	</linearGradient>
	<path fill="url(#SVGID_1_)" stroke="#000000" stroke-width="2" d="M144.975,314.598c-29.706,0-54.997-25.584-63.527-37.938
		c-8.528-12.354-10.294-23.822-15.293-41.174c-5-17.352-6.469-63.525-5-74.701c1.471-11.177,8.527-51.32,14.705-67.349
		c10.881-12.058,36.91-21.271,69.113-21.271s58.23,9.212,69.111,21.271c5.733,14.411,13.234,56.174,14.704,67.349
		c1.471,11.176,0,57.349-4.999,74.701c-5,17.352-6.765,28.822-15.292,41.174C199.97,289.014,174.68,314.598,144.975,314.598z"/>
	<path fill="#FFFFFF" d="M171.128,182.594c1.648,0.633,6.195,3.785,16.194,3.68c12.571-0.133,15.881-8.431,15.881-8.431
		s-6.273-8.03-20.194-8.03c-10.995,0-18.627,12.148-18.627,12.148S168.579,181.613,171.128,182.594z"/>
	<path fill="#FFFFFF" d="M125.981,181.326c0,0-7.632-12.149-18.628-12.149c-13.919,0-20.192,8.031-20.192,8.031
		s3.309,8.298,15.881,8.431c9.999,0.105,14.546-3.047,16.193-3.68C121.784,180.979,125.981,181.326,125.981,181.326z"/>
	
		<radialGradient id="SVGID_2_" cx="1.708" cy="353.1494" r="8.0249" gradientTransform="matrix(1 0 0 -1 182.5 530)" gradientUnits="userSpaceOnUse">
		<stop  offset="0" style="stop-color:#B09F76"/>
		<stop  offset="1" style="stop-color:#9FB3A9"/>
	</radialGradient>
	<circle fill="url(#SVGID_2_)" stroke="#020202" stroke-width="0.5" cx="184.208" cy="176.85" r="8.025"/>
	<circle cx="184.208" cy="176.851" r="2.753"/>
	
		<radialGradient id="SVGID_3_" cx="-75.9458" cy="353.9355" r="8.0251" gradientTransform="matrix(1 0 0 -1 182.5 530)" gradientUnits="userSpaceOnUse">
		<stop  offset="0" style="stop-color:#B09F76"/>
		<stop  offset="1" style="stop-color:#9FB3A9"/>
	</radialGradient>
	<circle fill="url(#SVGID_3_)" stroke="#020202" stroke-width="0.5" cx="106.555" cy="176.064" r="8.025"/>
	<circle cx="106.555" cy="176.064" r="2.753"/>
	<path stroke="#000000" stroke-width="0.9641" d="M159.481,152.944l0.979,2.352c0,0,14.505-7.759,26.47-7.254
		c17.06,0.719,27.253,9.803,27.253,9.803l0.979-0.979c0,0-12.354-13.137-27.841-13.333
		C171.834,143.336,159.481,152.944,159.481,152.944z"/>
	<g>
		<path d="M144.974,238.232v-0.787c2.665,0,4.169-1.027,5.496-1.934c1.209-0.824,2.353-1.604,4.01-1.189
			c2.993,0.748,7.779,0.008,9.658-1.494c1.474-1.18,1.483-4.883,1.325-6.789l0.249-0.02c0.062,0.744,0.98,5.77-1.082,7.422
			c-2.069,1.658-7.097,2.457-10.342,1.645c-1.312-0.33-2.178,0.26-3.374,1.078C149.562,237.084,147.882,238.232,144.974,238.232z
			 M144.974,238.232c-2.909,0-4.59-1.148-5.94-2.07c-1.197-0.816-2.062-1.408-3.374-1.076c-3.247,0.811-8.272,0.014-10.341-1.645
			c-2.064-1.652-1.075-6.082-1.014-6.826l0.458,0.039c-0.158,1.904-0.426,4.994,1.046,6.174c1.878,1.502,6.663,2.244,9.658,1.494
			c1.655-0.414,2.799,0.365,4.009,1.189c1.326,0.906,2.831,1.934,5.497,1.934L144.974,238.232L144.974,238.232z"/>
	</g>
	<path stroke="#000000" stroke-width="0.9641" d="M130.881,152.309l-0.98,2.353c0,0-14.504-7.759-26.467-7.253
		c-17.062,0.719-27.256,9.803-27.256,9.803l-0.979-0.979c0,0,12.353-13.136,27.843-13.333
		C118.529,142.701,130.881,152.309,130.881,152.309z"/>
	<path stroke="#000000" stroke-width="0.9641" d="M117.37,266.039c0,0,9.852,1.543,27.562,1.799
		c19.048,0.275,28.034-1.268,28.034-1.268s-11.207,3.084-25.839,3.592C135.332,270.572,117.37,266.039,117.37,266.039z"/>
	<path stroke="#000000" stroke-width="0.9641" d="M207.16,113.435c-17.302,20.052-13.368,17.3-24.378,22.019s-34.207,0-35.779,0
		c-1.573,0,21.23-0.786,30.078-6.685c8.848-5.897,11.992-12.188,13.563-17.693c1.575-5.504,1.65-17.256,1.937-12.87
		c0.447,6.814-2.855,8.274-8.535,19.798c-7.257,14.725-22.478,25.217-24.462,26.1c-3.539,1.572-16.514,7.469-21.625,8.649
		s-30.275,1.572-36.959,0c-6.685-1.573-12.188-6.968-20.84,1.038c-8.648,8.005-16.906,19.408-18.086,34.348
		c-1.18,14.943,2.359,21.232,0,27.129c-2.359,5.898-1.819-2.637-4.965-11.287c-3.435-9.443-7.231-12.957-6.839-14.529
		c0.394-1.574,0.401-21.364-1.565-24.903c-1.966-3.539-2.909-27.523-2.044-37.746c0.866-10.223,9.036-33.404,18.895-52.714
		c8.85-17.333,27.974-29.46,46.452-34.965c18.48-5.504,37.746-12.582,49.936-5.898c12.188,6.684,11.795-0.393,22.018,4.326
		c10.223,4.718,37.367,19.772,51.915,59.483s4.718,43.513,2.345,78.523c-2.948,43.471-11.011,44.641-10.877,41.477
		c0.144-3.354,0.275-8.336,0.667-18.557c0.394-10.225-3.158-13.482-5.124-32.354c-1.967-18.873,0.786-32.964-3.54-42.235
		c-4.325-9.271-2.753,19.037-1.965,25.721c0.785,6.685,0.393,11.796,0.393,11.796s-7.863-7.471-7.471-24.771
		c0.394-17.3,1.966-24.378,1.966-24.378s-6.684,16.515-5.504,24.771c1.179,8.257,1.966,17.3,1.966,17.3s-5.48-25.532-5.898-30.439
		C202.418,118.977,207.16,113.435,207.16,113.435z"/>
	<path stroke="#000000" stroke-width="0.9641" d="M62.675,212.631c0.786,14.76,1.643,10.141,6.753,24.9
		c5.111,14.764,2.752,10.334,9.437,21.496c6.684,11.16,12.405,13.469,15.55,17.068c1.785,2.045,3.01-12.666,7.778-21.104
		c3.625-6.418,17.558-7.396,20.445-8.641c6.685-2.881,5.738-7.711,9.437-8.82c2.178-0.654,4.856-0.545,5.504-0.24
		c1.421,0.664,4.481,5.914,7.683,5.914c3.165,0,6.007-4.67,7.783-6.273c0.44-0.398,4.737-0.088,5.243,0.119
		c2.62,1.08,1.291,6.447,8.666,8.594c7.158,2.086,20.757,6.287,24.295,12.049c3.539,5.76,1.631,25.623,9.1,16.982
		c7.472-8.643,20.477-23.871,21.373-29.584c2.36-15.064,4.836-28.057,4.836-28.057l1.762-1.846c0,0-3.846,30.863-5.812,38.783
		c-1.965,7.92-15.727,27.48-20.052,33.602s-18.087,20.881-24.771,26.281c-6.685,5.402-19.715,10.08-30.501,10.441
		c-10.784,0.359-32.802-9.361-40.666-16.92c-7.863-7.562-27.916-31.322-31.848-39.963c-3.932-8.643-9.883-25.66-10.224-32.502
		c-0.339-6.84-3.159-19.641-3.159-19.641L62.675,212.631z M155.542,301.928c3.669-0.27,7.699-0.58,11.92-0.764
		c8.415-0.365,12.976-3.15,15.728-9.99c2.751-6.842,2.444-15.842,2.444-22.684c0-6.84-7.591-14.309-19.482-17.723
		c-6.899-1.979-12.253,1.703-22.674,1.523c-7.51-0.133-12.188-2.572-21.626-0.992c-5.948,0.998-13.761,4.408-15.529,20.793
		c-1.858,17.195,4.375,23.625,14.351,26.82c5.541,1.775,11.75,3.164,16.987,3.176c3.852,0.01,3.196-4.436,8.152-4.314
		C150.953,297.898,151.418,302.23,155.542,301.928z M139.81,284.334c0.002,2.883,1.44,2.879,2.359,5.52
		c0.918,2.639,1.625,5.188,3.646,5.264c2.021,0.078,2.885-3.223,3.562-5.625c0.678-2.398,2.589-2.164,2.491-6
		c-0.048-1.771-2.622-5.039-7.341-4.801C144.527,278.691,139.808,279.652,139.81,284.334z"/>
	<path d="M220.558,163.22c-2.266-1.415-16.645-3.276-32.371-3.408c-15.727-0.13-24.114,1.835-28.047,2.491
		c-3.932,0.654-5.767,4.193-7.603,4.325c-1.835,0.131-2.085-2.081-7.026-2.081c-4.9,0-4.9,2.159-6.718,2.024
		c-1.819-0.136-3.639-3.779-7.536-4.453c-3.896-0.675-12.212-2.699-27.801-2.565c-15.587,0.135-29.839,2.05-32.085,3.509
		c-2.246,1.457-2.341,13.089-1.819,15.651c0.519,2.564,2.858,8.369,4.938,10.662c2.078,2.295,10.521,5.262,23.384,5.533
		c12.86,0.271,27.149-0.674,30.268-2.295c3.116-1.619,7.273-10.121,9.353-14.439c2.079-4.317,2.468-5.127,4.157-5.937
		s3.86-0.809,3.86-0.809s2.44-0.083,4.146,0.703c1.703,0.787,2.096,1.574,4.193,5.768c2.098,4.193,6.292,12.451,9.437,14.023
		c3.144,1.572,17.562,2.49,30.536,2.227c12.975-0.262,21.495-3.145,23.592-5.373c2.096-2.227,4.456-7.865,4.979-10.354
		C222.917,175.933,222.823,164.636,220.558,163.22z M129.178,187.758c-3.118,3.375-9.872,4.725-24.162,4.453
		c-14.291-0.27-23.252,0.404-27.409-3.645s-5.067-9.581-5.455-14.303c-0.392-4.722,0.259-7.691,2.337-9.041
		c2.078-1.349,7.869-3.279,29.358-3.375c12.607-0.054,30.269,1.889,30.528,9.042C134.634,178.041,132.296,184.383,129.178,187.758z
		 M219.771,174.098c-0.393,4.587-1.311,9.96-5.505,13.894c-4.194,3.93-13.236,3.275-27.653,3.537
		c-14.416,0.262-21.231-1.049-24.378-4.324c-3.146-3.275-5.504-9.438-5.242-16.383s18.079-8.835,30.8-8.781
		c21.679,0.091,27.522,1.965,29.619,3.277C219.509,166.628,220.164,169.511,219.771,174.098z"/>
	<polygon opacity="0.29" fill="#7C6029" enable-background="new    " points="102.777,178.613 104.069,178.342 103.916,180.24 
		105.225,179.292 105.48,180.752 106.543,179.615 107.229,180.752 107.943,179.222 109.303,180.24 109.303,178.785 110.293,178.903 
		109.93,177.367 111.376,177.203 110.91,176.643 111.376,176 110.578,175.793 111.138,175.228 109.83,174.673 110.409,173.212 
		108.64,173.496 108.372,171.086 106.595,172.854 106.112,171.902 105.7,172.871 104.902,171.648 104.516,173.584 103.144,173.109 
		103.407,174.231 102.524,174.673 103.316,175.793 101.835,176.787 103.016,177.561 	"/>
	<polygon opacity="0.09" enable-background="new    " points="105.089,179.668 104.578,180.041 104.578,181.061 105.225,180.365 	
		"/>
	<polygon opacity="0.09" enable-background="new    " points="109.45,179.107 109.523,179.736 110.409,180.24 110.122,179.334 	"/>
	<polygon opacity="0.09" enable-background="new    " points="103.762,178.613 103.034,178.753 102.524,179.832 103.557,179.418 	
		"/>
	<polygon opacity="0.09" enable-background="new    " points="109.963,174.596 110.699,174.673 111.502,173.79 110.394,173.885 	"/>
	<polygon opacity="0.09" enable-background="new    " points="110.2,177.635 110.468,178.326 111.62,178.635 111.03,177.693 	"/>
	<polygon opacity="0.09" enable-background="new    " points="103.144,175.807 102.68,175.228 101.487,175.279 102.335,176 	"/>
	<polygon opacity="0.09" enable-background="new    " points="106.581,179.869 106.112,180.293 106.216,181.307 106.788,180.549 	
		"/>
	<polygon opacity="0.09" enable-background="new    " points="108.044,179.615 107.727,180.568 108.66,181.891 108.859,180.393 	"/>
	<polygon opacity="0.09" enable-background="new    " points="108.856,173.212 109.808,172.888 110.293,171.343 108.982,172.091 	
		"/>
	<polygon opacity="0.09" enable-background="new    " points="104.412,173.32 104.516,172.321 103.316,171.234 103.446,172.737 	"/>
	<polygon opacity="0.09" enable-background="new    " points="106.744,172.52 107.353,171.719 106.896,170.167 106.223,171.518 	"/>
	<polygon opacity="0.29" fill="#7C6029" enable-background="new    " points="188.251,179.441 186.96,179.17 187.113,181.068 
		185.805,180.119 185.404,181.58 184.793,181.102 184.419,181.465 184.076,181.152 183.552,181.465 183.042,180.174 
		181.726,181.068 181.726,179.613 180.737,179.73 181.1,178.195 179.653,178.032 180.418,177.027 179.891,176.057 181.199,175.502 
		180.62,174.041 182.391,174.325 182.517,172.783 183.305,173.245 183.722,172.629 184.436,173.683 184.917,172.73 185.33,173.7 
		186.598,172.493 186.841,174.62 188.93,174.838 187.887,176.062 189.186,176.724 187.887,177.666 	"/>
	<polygon opacity="0.09" enable-background="new    " points="185.94,180.496 186.451,180.871 186.451,181.891 185.805,181.193 	"/>
	<polygon opacity="0.09" enable-background="new    " points="181.58,179.938 181.507,180.564 180.62,181.068 180.907,180.163 	"/>
	<polygon opacity="0.09" enable-background="new    " points="184.43,173.269 184.076,172.744 184.419,171.785 184.793,172.658 	"/>
	<polygon opacity="0.09" enable-background="new    " points="185.441,173.245 185.254,172.641 185.857,171.82 185.964,172.765 	"/>
	<polygon opacity="0.09" enable-background="new    " points="187.268,179.441 187.996,179.582 188.506,180.66 187.474,180.247 	"/>
	<polygon opacity="0.09" enable-background="new    " points="181.066,175.424 180.331,175.502 179.527,174.62 180.637,174.713 	"/>
	<polygon opacity="0.09" enable-background="new    " points="188.238,176.07 188.693,175.488 189.887,175.524 189.048,176.255 	"/>
	<polygon opacity="0.09" enable-background="new    " points="188.119,177.717 188.841,177.553 189.742,178.336 188.631,178.371 	
		"/>
	<polygon opacity="0.09" enable-background="new    " points="180.002,176.963 179.435,177.24 178.531,176.768 179.446,176.518 	"/>
	<polygon opacity="0.09" enable-background="new    " points="182.986,180.443 183.304,181.396 182.37,182.719 182.171,181.223 	"/>
	<polygon opacity="0.09" enable-background="new    " points="180.846,178.396 180.396,179.294 178.801,179.568 179.718,178.371 	
		"/>
	<polygon opacity="0.09" enable-background="new    " points="182.174,174.041 181.223,173.716 180.737,172.172 182.049,172.919 	
		"/>
	<polygon opacity="0.09" enable-background="new    " points="186.979,174.421 187.144,173.431 188.587,172.7 188.064,174.114 	"/>
	<path opacity="0.8" fill="#FFFFFF" enable-background="new    " d="M185.016,175.072c0.327-0.074,1.067,0.343,1.376,1.2
		c0.247,0.684-0.041,1.87-0.579,1.92c0.094-0.238,0.186-0.852-0.011-1.683C185.653,175.875,185.34,175.455,185.016,175.072z"/>
	<path opacity="0.8" fill="#FFFFFF" enable-background="new    " d="M107.341,174.476c0.296-0.073,0.958,0.313,1.227,1.129
		c0.214,0.646-0.06,1.781-0.546,1.836c0.088-0.229,0.178-0.814,0.012-1.605C107.906,175.234,107.628,174.837,107.341,174.476z"/>
	<g>
		<path d="M186.743,186.176c-8.46,0-12.892-1.949-15.021-2.887c-0.295-0.129-0.539-0.238-0.741-0.314
			c-2.43-0.936-6.548-0.609-6.565-0.607l-0.822,0.068l0.444-0.695c0.337-0.523,8.345-13.329,19.436-13.329
			c13.974,0,20.007,9.114,20.067,9.202l0.125,0.184l-0.087,0.205c-0.141,0.327-3.56,8.037-16.252,8.168L186.743,186.176z
			 M166.129,181.494c1.492,0,3.597,0.123,5.146,0.719c0.211,0.08,0.468,0.193,0.776,0.328c2.078,0.916,6.405,2.818,14.692,2.818
			l0.575-0.004c11.023-0.115,14.778-6.26,15.41-7.467c-0.956-1.232-6.874-8.133-19.254-8.133c-7.611,0-17.997,11.357-18.283,11.754
			C165.455,181.5,165.775,181.494,166.129,181.494z"/>
	</g>
	<g>
		<path d="M103.611,185.568C103.61,185.568,103.611,185.568,103.611,185.568l-0.574-0.004c-12.694-0.133-16.113-7.868-16.253-8.197
			l-0.087-0.207l0.126-0.184c0.064-0.092,6.557-9.18,20.529-9.18c11.104,0,18.664,12.778,18.98,13.327l0.389,0.674l-0.774-0.064
			c-0.018-0.002-4.134-0.326-6.566,0.605c-0.204,0.08-0.454,0.191-0.755,0.324C116.494,183.605,112.056,185.568,103.611,185.568z
			 M87.636,177.252c0.633,1.209,4.411,7.383,15.41,7.498l0.564,0.002c8.273,0,12.604-1.916,14.685-2.836
			c0.316-0.139,0.578-0.256,0.793-0.338c1.938-0.746,4.766-0.75,6.132-0.701c-1.708-2.643-8.633-11.564-17.867-11.564
			C94.91,169.313,88.627,175.963,87.636,177.252z"/>
	</g>
</g>
</svg>
