<?xml version="1.0" encoding="utf-8"?>
<!-- Generator: Adobe Illustrator 15.1.0, SVG Export Plug-In  -->
<!DOCTYPE svg PUBLIC "-//W3C//DTD SVG 1.1//EN" "http://www.w3.org/Graphics/SVG/1.1/DTD/svg11.dtd" [
	<!ENTITY ns_flows "http://ns.adobe.com/Flows/1.0/">
]>
<svg version="1.1"
	 xmlns="http://www.w3.org/2000/svg" xmlns:xlink="http://www.w3.org/1999/xlink" xmlns:a="http://ns.adobe.com/AdobeSVGViewerExtensions/3.0/"
	 x="0px" y="0px" width="201px" height="34px" viewBox="0 -1 201 34" overflow="visible" enable-background="new 0 -1 201 34"
	 xml:space="preserve">
<defs>
</defs>
<path fill-rule="evenodd" clip-rule="evenodd" d="M199.883,32.395c-1.848-0.701-2.268-3.985-2.068-5.974
	c-2.333-4.734-1.443-12.324-1.148-18.61c-1.929,4.23-3.504,9.237-5.744,14.015c-0.47,1.004-1.4,3.978-2.527,3.906
	c-1.794-0.115-1.818-5.572-2.068-7.352c-0.421-3.006-0.718-5.854-0.918-8.5c-1.542,0.366-1.985,2.354-2.528,3.676
	c-1.158,2.822-2.39,5.752-3.675,8.731c-0.548,1.269-0.939,3.147-2.528,3.216c-2.817-3.462-3.143-9.416-4.135-14.704
	c-2.044,1.515-2.099,5.128-3.216,8.042c-0.428,1.113-1.845,4.176-3.217,4.135c-2.441-0.072-3.106-6.796-4.825-8.271
	c-2.463-0.198-3.618,1.878-5.284,2.297c-1.996,0.503-5.562-0.019-8.271,0.23c-3.058,0.28-6.586,0.049-10.568,0.229
	c-10.357,0.471-22.348-0.519-32.166,0c-0.782,0.042-1.526,0.415-2.297,0.459c-1.751,0.102-3.511-0.422-5.514-0.459
	c-3.598-0.067-7.45,0.773-10.798,0.459c-4.426-0.415-10.159,0.067-15.164-0.229c-5.945-0.353-11.968-0.099-17.691-0.23
	c-9.958-0.228-20.04,0.085-30.787,0.689c-4.218,0.237-8.636-0.887-12.866-0.689c-1.642,0.077-3.575,0.621-5.285,0.689
	C3.323,18.201,0.636,19.021,0,16.772c1.263-1.823,2.602-0.747,3.906-0.689c4.132,0.182,8.056-0.462,11.947-0.459
	c1.879,0.001,3.794,0.459,5.744,0.459c8.433,0,16.926-0.07,25.502-0.459c10.596-0.481,21.106,0.539,31.017,0
	c1.715-0.093,2.947,0.025,4.595,0.229c4.793,0.594,9.983-0.291,15.164-0.459c4.235-0.138,8.678,0.69,12.636,0.459
	c0.827-0.048,1.535-0.43,2.297-0.459c1.974-0.076,3.945,0.457,5.973,0.459c1.808,0.002,3.733-0.371,5.744-0.459
	c4.69-0.207,9.962,0.435,14.474,0.229c4.628-0.21,11.19,0.594,15.624-0.229c1.176-0.219,2.12-1.341,3.446-2.068
	c0.418-0.229,1.271-0.277,2.067-0.689c0.871-0.45,1.215-1.043,1.838-0.919c2.34,0.468,1.893,6.876,4.135,8.042
	c1.796-1.693,2.438-4.568,3.446-7.123c0.946-2.394,1.57-5.55,3.676-6.893c1.595,1.788,1.281,5.161,1.608,8.042
	c0.334,2.943,0.51,6.037,1.838,7.812c0.979,0.182,1.437-1.341,1.838-2.068c1.253-2.268,2.208-4.647,3.446-7.352
	c0.624-1.366,1.563-2.543,2.297-3.906c0.843-1.565,0.812-3.772,2.298-4.825c1.519,0.491,0.916,2.484,0.919,3.676
	c0.009,4.144-0.346,10.332,1.148,14.475c4.183-5.62,5.829-13.776,8.271-21.137c0.057-0.25,0.457-0.156,0.46-0.459
	c0.184,0.122,0.372,0.24,0.689,0.23c1.91,6.398-0.625,13.555,0,20.447C198.419,24.804,200.511,28.583,199.883,32.395z"/>
<circle display="none" fill="#FFFFFF" stroke="#1A171B" stroke-miterlimit="10" cx="92.773" cy="15.872" r="13.871"/>
<path display="none" fill-rule="evenodd" clip-rule="evenodd" d="M90.582,1.094c4.605-0.466,10.091,1.967,13.135,4.535
	c3.386,2.856,4.428,7.278,3.284,13.135c-0.897,4.593-3.178,8.259-7.036,10.164c-6.608,3.263-16.408,1.17-20.016-4.378
	c-4.139-6.364-1.522-15.83,2.815-19.86C84,3.541,86.317,1.983,87.455,1.563C88.395,1.216,89.045,1.25,90.582,1.094z M83.076,7.192
	c-0.848,1.146-2.859,5.911-2.971,7.35c-0.211,2.735,0.987,5.669,2.033,7.663c3.412,6.498,14.5,8.752,19.859,2.658
	c2.143-2.436,4.883-11.133,2.815-15.481c-1.678-3.529-7.982-7.704-13.917-6.724C87.591,3.203,84.722,4.966,83.076,7.192z"/>
<path display="none" fill-rule="evenodd" clip-rule="evenodd" d="M100.59,16.418c-0.279,1.747-2.075,2.907-3.284,4.222
	c-1.225,1.333-2.301,2.973-3.909,3.753c-0.365-0.73,0.129-1.545,0.47-2.033c1.512-2.172,4.25-3.718,5.942-5.629
	c0.115-0.146,0.285-0.237,0.469-0.313C100.381,16.418,100.486,16.418,100.59,16.418z"/>
<path display="none" fill-rule="evenodd" clip-rule="evenodd" d="M100.434,20.797c0.023,1.475-1.202,3.765-3.128,3.284
	c0.026-0.182-0.034-0.278-0.156-0.312C97.741,22.274,98.816,21.265,100.434,20.797z"/>
</svg>
