<?xml version="1.0" encoding="utf-8"?>
<!-- Generator: Adobe Illustrator 15.0.2, SVG Export Plug-In . SVG Version: 6.00 Build 0)  -->
<!DOCTYPE svg PUBLIC "-//W3C//DTD SVG 1.1//EN" "http://www.w3.org/Graphics/SVG/1.1/DTD/svg11.dtd">
<svg version="1.1" id="Layer_1" xmlns="http://www.w3.org/2000/svg" xmlns:xlink="http://www.w3.org/1999/xlink" x="0px" y="0px"
	 width="280px" height="350px" viewBox="0 0 280 350" enable-background="new 0 0 280 350" xml:space="preserve">
<g id="Layer_4">
	
		<linearGradient id="SVGID_1_" gradientUnits="userSpaceOnUse" x1="-283.7954" y1="737.0566" x2="-166.2765" y2="597.5029" gradientTransform="matrix(1 0 0 1 365 -491)">
		<stop  offset="0" style="stop-color:#FAE3DC"/>
		<stop  offset="1" style="stop-color:#EDD7D0"/>
	</linearGradient>
	<path fill="url(#SVGID_1_)" d="M70.305,84.453c-6.563,17.161-14.056,60.021-15.545,71.336c-1.636,12.436,0.151,61.305,5.295,79.159
		c4.561,15.831,11.966,26.334,19.805,37.454c1.226,1.738,2.46,3.489,3.691,5.272l0.54,0.783
		c9.244,13.406,28.511,36.601,59.079,36.601c29.133,0,49.297-25.043,59.003-39.337c0.687-1.011,1.325-1.95,1.912-2.802
		c4.453-6.447,7.715-10.912,10.338-14.5c7.046-9.644,7.255-11.31,10.736-23.4c5.145-17.856,7.995-66.794,6.358-79.23
		c-1.627-12.355-9.479-55.954-15.543-71.331c-12.312-13.524-40.877-22.257-72.835-22.257S82.621,70.931,70.305,84.453z"/>
</g>
<g id="Layer_2">
	<path fill="#FFFFFF" d="M163.202,181.009c1.586,0,3.823,0.132,5.467,0.764c0.18,0.07,0.394,0.16,0.643,0.265
		c2.014,0.845,6.734,2.812,15.761,2.812l0.677-0.004c11.722-0.122,15.731-6.427,16.416-7.691c-1.097-1.274-7.81-8.386-21.004-8.386
		c-9.82,0-17.188,9.614-19.027,12.261C162.432,181.018,162.794,181.009,163.202,181.009z"/>
	<path stroke="#000000" stroke-width="0.8194" d="M115.463,271.23c0,0,9.371,0.815,25.228,0.815s27.875-2.907,27.875-2.907
		s-14.433,5.582-25.49,5.582C132.017,274.722,115.463,271.23,115.463,271.23z"/>
	<path stroke="#000000" stroke-width="0.8194" d="M156.129,160.396l1.043,2.504c0,0,15.436-8.256,28.166-7.719
		c18.154,0.765,28.998,10.43,28.998,10.43l1.042-1.042c0,0-13.143-13.979-29.623-14.187
		C169.272,150.174,156.129,160.396,156.129,160.396z"/>
	<path stroke="#000000" stroke-width="0.8194" d="M125.696,159.721l-1.042,2.502c0,0-15.435-8.255-28.165-7.719
		c-18.154,0.766-29,10.432-29,10.432l-1.042-1.042c0,0,13.145-13.979,29.625-14.188
		C112.553,149.498,125.696,159.721,125.696,159.721z"/>
	<g>
		<g>
			<path fill="none" d="M122.329,228.389c0,0-1.38,5.875,0.504,7.546c1.887,1.671,6.603,2.506,9.622,1.671
				c3.018-0.837,3.757,2.922,8.852,2.922c5.093,0,6.238-3.757,9.256-2.922c3.016,0.834,7.736,0,9.617-1.671
				c1.887-1.671,0.506-7.546,0.506-7.546"/>
			<g>
				<g>
					<path fill="#202020" d="M122.329,228.389c-0.472,1.224-0.774,2.301-0.94,3.479c-0.077,0.59-0.12,1.208-0.066,1.896
						c0.073,0.683,0.166,1.474,0.762,2.291c0.702,0.887,2.337,1.718,4.434,2.169c1.046,0.229,2.206,0.361,3.412,0.35
						c0.604-0.011,1.218-0.056,1.835-0.16c0.295-0.046,0.646-0.135,0.893-0.196l0.212-0.051l0.153-0.021
						c0.103-0.01,0.224-0.022,0.332-0.016c0.874,0.001,1.727,0.71,2.613,1.311c0.884,0.617,1.833,1.104,2.681,1.351
						c1.716,0.488,2.85,0.347,2.849,0.367c-0.036-0.021,1.154,0.078,2.824-0.472c0.834-0.275,1.76-0.763,2.647-1.344
						c0.891-0.56,1.786-1.216,2.681-1.219c0.226-0.002,0.455,0.021,0.687,0.085c0.268,0.067,0.601,0.152,0.906,0.2
						c0.614,0.105,1.229,0.15,1.834,0.16c1.207,0.015,2.365-0.121,3.413-0.347c2.098-0.449,3.734-1.291,4.421-2.155
						c0.619-0.848,0.694-1.616,0.774-2.304c0.053-0.688,0.01-1.307-0.065-1.898c-0.166-1.179-0.468-2.254-0.939-3.479
						c0.074,1.309,0.06,2.398,0.01,3.52c-0.031,0.56-0.076,1.129-0.176,1.718c-0.096,0.565-0.269,1.225-0.584,1.637
						c-0.347,0.489-1.794,1.324-3.712,1.711c-0.956,0.206-2.03,0.331-3.126,0.318c-0.546-0.008-1.099-0.048-1.635-0.145
						c-0.271-0.04-0.505-0.103-0.805-0.176c-0.328-0.091-0.686-0.131-1.036-0.125c-0.715,0.012-1.374,0.263-1.906,0.546
						c-0.544,0.284-0.999,0.602-1.433,0.876c-0.861,0.562-1.651,0.972-2.368,1.21c-1.446,0.474-2.427,0.391-2.445,0.409
						c0.017-0.019-1.013,0.099-2.448-0.316c-0.718-0.212-1.5-0.604-2.331-1.184c-0.421-0.286-0.859-0.617-1.387-0.931
						c-0.516-0.312-1.189-0.595-1.913-0.606c-0.181-0.01-0.351,0.006-0.536,0.024l-0.278,0.045l-0.213,0.05
						c-0.317,0.079-0.534,0.138-0.817,0.182c-0.536,0.095-1.088,0.134-1.634,0.143c-1.096,0.014-2.169-0.111-3.125-0.317
						c-1.917-0.387-3.367-1.229-3.699-1.698c-0.339-0.436-0.495-1.075-0.596-1.648c-0.099-0.589-0.142-1.155-0.172-1.717
						C122.271,230.787,122.254,229.695,122.329,228.389z"/>
				</g>
			</g>
		</g>
	</g>
	
		<radialGradient id="SVGID_2_" cx="-183.001" cy="666.6396" r="8.1367" gradientTransform="matrix(1 0 0 1 365 -491)" gradientUnits="userSpaceOnUse">
		<stop  offset="0" style="stop-color:#FFFFFF"/>
		<stop  offset="0" style="stop-color:#BDDEF2"/>
		<stop  offset="1" style="stop-color:#5D97BA"/>
	</radialGradient>
	<circle fill="url(#SVGID_2_)" stroke="#000000" stroke-width="0.4097" cx="181.999" cy="175.64" r="8.137"/>
	<polygon opacity="0.23" enable-background="new    " points="178.029,178.055 179.32,177.784 179.166,179.685 180.476,178.734 
		180.731,180.197 181.793,179.059 182.482,180.197 183.196,178.666 184.556,179.685 184.556,178.227 185.548,178.345 
		185.185,176.81 186.631,176.645 186.167,176.084 186.631,175.439 185.832,175.234 186.393,174.668 185.085,174.113 
		185.662,172.651 183.893,172.935 183.625,170.523 181.846,172.293 181.364,171.341 180.953,172.309 180.154,171.085 
		179.767,173.023 178.395,172.547 178.657,173.671 177.774,174.113 178.566,175.234 177.086,176.228 178.266,177.002 	"/>
	<ellipse stroke="#000000" stroke-width="0.8919" cx="181.997" cy="175.64" rx="2.831" ry="2.707"/>
	<g>
		<path d="M185.074,185.26c-9.19,0-14.015-1.61-16.075-2.469c-0.241-0.103-0.448-0.188-0.624-0.256
			c-2.592-0.996-6.98-0.648-6.998-0.646l-0.807,0.063l0.427-0.686c0.081-0.133,8.576-14.604,20.367-14.604
			c14.839,0,21.544,10.099,21.612,10.187l0.145,0.192l-0.099,0.221c-0.146,0.339-3.783,7.853-17.268,7.992L185.074,185.26z
			 M163.202,181.009c1.586,0,3.823,0.132,5.467,0.764c0.18,0.07,0.394,0.16,0.643,0.265c2.014,0.845,6.734,2.406,15.761,2.406
			l0.677-0.004c11.722-0.123,15.731-6.021,16.416-7.283c-1.097-1.272-7.81-8.386-21.004-8.386c-9.82,0-17.188,9.614-19.027,12.261
			C162.432,181.018,162.794,181.009,163.202,181.009z"/>
	</g>
	<path opacity="0.8" fill="#FFFFFF" enable-background="new    " d="M182.831,173.196c0.359-0.089,1.167,0.384,1.496,1.375
		c0.259,0.789-0.074,2.172-0.668,2.238c0.109-0.276,0.218-0.992,0.015-1.956C183.52,174.121,183.18,173.638,182.831,173.196z"/>
	<polygon opacity="0.09" enable-background="new    " points="180.339,179.111 179.831,179.485 179.831,180.504 180.476,179.809 	
		"/>
	<polygon opacity="0.09" enable-background="new    " points="184.704,178.551 184.777,179.18 185.662,179.685 185.379,178.777 	"/>
	<polygon opacity="0.09" enable-background="new    " points="179.012,178.055 178.284,178.196 177.774,179.275 178.808,178.862 	
		"/>
	<polygon opacity="0.09" enable-background="new    " points="185.217,174.035 185.954,174.113 186.756,173.229 185.648,173.323 	
		"/>
	<polygon opacity="0.09" enable-background="new    " points="185.454,177.076 185.722,177.769 186.876,178.079 186.284,177.134 	
		"/>
	<polygon opacity="0.09" enable-background="new    " points="178.395,175.246 177.93,174.668 176.738,174.722 177.586,175.439 	"/>
	<polygon opacity="0.09" enable-background="new    " points="181.833,179.312 181.364,179.738 181.469,180.754 182.04,179.993 	"/>
	<polygon opacity="0.09" enable-background="new    " points="183.297,179.059 182.98,180.012 183.912,181.335 184.112,179.837 	"/>
	<polygon opacity="0.09" enable-background="new    " points="184.11,172.651 185.062,172.326 185.548,170.781 184.235,171.529 	"/>
	<polygon opacity="0.09" enable-background="new    " points="179.664,172.759 179.767,171.76 178.566,170.672 178.698,172.176 	"/>
	<polygon opacity="0.09" enable-background="new    " points="181.997,171.958 182.606,171.157 182.147,169.604 181.475,170.955 	
		"/>
	<path fill="#FFFFFF" d="M119.864,181.029c-1.841-2.647-9.205-12.261-19.028-12.261c-13.193,0-19.907,7.112-21.003,8.386
		c0.687,1.265,4.696,7.569,16.418,7.691l0.674,0.004c9.028,0,13.746-1.97,15.762-2.812c0.249-0.103,0.463-0.192,0.643-0.265
		c1.644-0.632,3.881-0.764,5.466-0.764C119.207,181.009,119.569,181.018,119.864,181.029z"/>
	
		<radialGradient id="SVGID_3_" cx="-934.3418" cy="666.6396" r="8.1365" gradientTransform="matrix(-1 0 0 1 -834.3398 -491)" gradientUnits="userSpaceOnUse">
		<stop  offset="0" style="stop-color:#FFFFFF"/>
		<stop  offset="0" style="stop-color:#BDDEF2"/>
		<stop  offset="1" style="stop-color:#5D97BA"/>
	</radialGradient>
	<circle fill="url(#SVGID_3_)" stroke="#000000" stroke-width="0.4097" cx="100.002" cy="175.64" r="8.137"/>
	<polygon opacity="0.23" enable-background="new    " points="103.972,178.055 102.681,177.784 102.834,179.685 101.524,178.734 
		101.124,180.197 100.512,179.718 100.138,180.082 99.794,179.767 99.271,180.082 98.759,178.788 97.444,179.685 97.444,178.227 
		96.453,178.345 96.817,176.81 95.369,176.645 96.134,175.641 95.607,174.668 96.916,174.113 96.337,172.651 98.108,172.935 
		98.234,171.39 99.022,171.854 99.44,171.238 100.153,172.293 100.637,171.341 101.048,172.309 102.318,171.102 102.561,173.229 
		104.652,173.449 103.608,174.673 104.907,175.336 103.608,176.278 	"/>
	<ellipse stroke="#000000" stroke-width="0.8919" cx="100.003" cy="175.64" rx="2.832" ry="2.707"/>
	<g>
		<path d="M96.244,185.256c-13.486-0.142-17.12-7.655-17.268-7.992l-0.097-0.222l0.145-0.191c0.068-0.088,6.77-10.187,21.612-10.187
			c11.791,0,20.285,14.471,20.367,14.604l0.427,0.686l-0.806-0.063c-0.019-0.003-4.296-0.788-6.888,0.208
			c-0.175,0.067-0.382,0.154-0.623,0.255c-2.06,0.86-6.995,2.91-16.187,2.91L96.244,185.256z M119.864,181.029
			c-1.841-2.647-9.205-12.261-19.028-12.261c-13.193,0-19.907,7.112-21.003,8.386c0.687,1.265,4.696,7.162,16.418,7.285l0.674,0.004
			c9.028,0,13.856-2.004,15.873-2.847c0.249-0.103,0.463-0.191,0.645-0.262c1.643-0.631,3.77-0.326,5.355-0.326
			C119.207,181.009,119.569,181.018,119.864,181.029z"/>
	</g>
	<path opacity="0.8" fill="#FFFFFF" enable-background="new    " d="M100.731,173.196c0.36-0.089,1.168,0.384,1.496,1.375
		c0.261,0.789-0.073,2.172-0.667,2.238c0.108-0.276,0.218-0.992,0.015-1.956C101.421,174.121,101.082,173.638,100.731,173.196z"/>
	<polygon opacity="0.09" enable-background="new    " points="101.66,179.111 102.171,179.485 102.171,180.504 101.524,179.809 	"/>
	<polygon opacity="0.09" enable-background="new    " points="97.296,178.551 97.224,179.18 96.337,179.685 96.623,178.777 	"/>
	<polygon opacity="0.09" enable-background="new    " points="100.148,171.877 99.794,171.353 100.138,170.393 100.512,171.267 	"/>
	<polygon opacity="0.09" enable-background="new    " points="101.161,171.854 100.973,171.25 101.577,170.43 101.683,171.373 	"/>
	<polygon opacity="0.09" enable-background="new    " points="102.988,178.055 103.716,178.196 104.227,179.275 103.195,178.862 	
		"/>
	<polygon opacity="0.09" enable-background="new    " points="96.783,174.035 96.046,174.113 95.243,173.229 96.352,173.323 	"/>
	<polygon opacity="0.09" enable-background="new    " points="103.959,174.681 104.416,174.099 105.609,174.134 104.771,174.866 	
		"/>
	<polygon opacity="0.09" enable-background="new    " points="103.84,176.33 104.563,176.166 105.464,176.949 104.352,176.985 	"/>
	<polygon opacity="0.09" enable-background="new    " points="95.719,175.573 95.15,175.853 94.246,175.381 95.164,175.13 	"/>
	<polygon opacity="0.09" enable-background="new    " points="98.704,179.059 99.022,180.012 98.088,181.335 97.887,179.837 	"/>
	<polygon opacity="0.09" enable-background="new    " points="96.562,177.01 96.113,177.908 94.518,178.183 95.434,176.983 	"/>
	<polygon opacity="0.09" enable-background="new    " points="97.891,172.651 96.938,172.326 96.453,170.781 97.765,171.529 	"/>
	<polygon opacity="0.09" enable-background="new    " points="102.699,173.032 102.863,172.041 104.309,171.309 103.785,172.725 	
		"/>
</g>
<g id="Layer_5">
	<g>
		<path d="M143.106,316.93c-31.426,0-50.958-23.91-60.358-37.544l-0.541-0.783c-1.229-1.779-2.459-3.524-3.682-5.259
			c-7.921-11.236-15.403-21.851-20.04-37.944c-5.189-18.01-6.994-67.287-5.344-79.823c1.499-11.392,9.068-54.658,15.695-71.852
			l0.054-0.142l0.102-0.112c12.557-13.912,41.66-22.902,74.148-22.902c32.487,0,61.589,8.99,74.145,22.903l0.1,0.108l0.054,0.137
			c6.122,15.377,14.061,59.415,15.699,71.859c1.649,12.534-0.153,61.812-5.344,79.822c-3.564,12.37-5.026,14.373-12.054,23.985
			c-2.614,3.58-5.87,8.034-10.311,14.464c-0.585,0.848-1.223,1.784-1.906,2.792C193.66,291.165,173.104,316.93,143.106,316.93z
			 M70.305,84.453c-6.563,17.161-14.056,60.021-15.545,71.336c-1.636,12.436,0.151,61.305,5.295,79.159
			c4.561,15.831,11.966,26.334,19.805,37.454c1.226,1.738,2.46,3.489,3.691,5.272l0.54,0.783
			c9.244,13.406,28.511,36.601,59.079,36.601c29.133,0,49.297-25.043,59.003-39.337c0.687-1.011,1.325-1.95,1.912-2.802
			c4.453-6.447,7.715-10.912,10.338-14.5c7.046-9.644,7.255-11.31,10.736-23.4c5.145-17.856,7.995-66.794,6.358-79.23
			c-1.627-12.355-9.479-55.954-15.543-71.331c-12.312-13.524-40.877-22.257-72.835-22.257S82.621,70.931,70.305,84.453z"/>
	</g>
</g>
<g id="Layer_3">
	
		<linearGradient id="SVGID_4_" gradientUnits="userSpaceOnUse" x1="-118.2856" y1="545.4336" x2="-326.6727" y2="728.2478" gradientTransform="matrix(1 0 0 1 365 -491)">
		<stop  offset="0" style="stop-color:#140B00"/>
		<stop  offset="1" style="stop-color:#1C1510"/>
	</linearGradient>
	<path fill="url(#SVGID_4_)" d="M91.494,70.054c0-5.44-12.208-9.064-9.794-3.809c2.404,5.233,0.543,13.331,10.337,20.131
		c9.794,6.802,22.58,18.228,53.73,28.021c31.148,9.794,45.838,14.418,55.904,27.749s13.209,17.329,15.779,32.917
		c1.214,7.356,6.801,7.892,10.065,10.067c0,0-9.251-6.528-9.251-18.229c0-11.698-9.52-37.271-9.52-37.271
		s11.425,8.978,13.872,15.235c2.449,6.257,4.989,18.531,7.71,30.774c2.719,12.244,2.356,29.354,0.997,36.154
		s-3.809,18.228-3.809,18.228s10.606-8.436,12.513-13.331c1.903-4.896,2.449,0.544,6.53-5.441c4.08-5.986,8.433-15.781,8.704-18.773
		c0.271-2.994,4.354-2.719,4.627,0.271c0.27,2.992-0.272,9.793-2.721,11.972c-2.448,2.177,8.434-5.441,8.978-10.883
		c0.546-5.441-1.358-24.758-4.353-29.655c-2.991-4.897-1.087-14.962-5.167-18.499c-4.081-3.537,5.439,0.271,7.888,3.809
		c2.448,3.536-3.806-8.434-8.433-10.066c-4.627-1.632-3.809-14.69-4.353-15.779c-0.544-1.088,2.717-13.057,3.807-8.161
		c1.091,4.897,1.09-10.881-2.447-17.411c-3.536-6.529-12.513-23.668-22.307-32.101c-9.793-8.433-29.652-22.58-39.718-26.117
		c-10.065-3.536-77.93-18.996-85.275-4.973c-2.244,4.285-4.627,1.675-24.076,8.204C66.311,48.257,57.5,63.218,48.523,77.908
		c-6.728,11.01-20.131,17.957-23.396,35.368c-3.266,17.409,5.377,30.197,1.025,39.719c-4.353,9.521-8.034,13.381-9.187,23.72
		c-1.153,10.337,2.978,22.29,6.787,26.374c3.81,4.08-1.905-4.898,2.448-14.148c4.354-9.25,8.433-15.78,8.977-6.529
		c0.545,9.248,2.177,6.802-5.168,10.88c-7.346,4.082-4.081,3.268-4.081,3.268s6.802,0,10.882-4.083
		c4.081-4.081,3.808,1.359,1.632,5.985c-2.177,4.627-5.168,6.802-8.979,7.89c-3.809,1.09,3.265,1.358,6.257,0
		c2.993-1.36,5.713,5.714,3.537,7.89c-2.176,2.178,8.706,7.618,0,8.435s-6.802,1.358-6.802,1.358l4.897,2.179l-3.808,5.44
		c0,0,4.624-4.353,11.153-2.446c6.529,1.902,15.792,9.488,13.616-5.475c-2.177-14.96-6.27-37.785-2.734-48.12
		c3.537-10.338,5.441-64.748,15.235-75.631c9.794-10.882,10.197-17.84,12.786-20.947C87.686,74.134,91.494,70.054,91.494,70.054z"/>
</g>
</svg>
