<?xml version="1.0" standalone="no"?>
<!DOCTYPE svg PUBLIC "-//W3C//DTD SVG 20010904//EN"
 "http://www.w3.org/TR/2001/REC-SVG-20010904/DTD/svg10.dtd">
<svg version="1.0" xmlns="http://www.w3.org/2000/svg"
 width="1024.000000pt" height="1024.000000pt" viewBox="0 0 1024.000000 1024.000000"
 preserveAspectRatio="xMidYMid meet">
<metadata>
Created by potrace 1.14, written by Peter Selinger 2001-2017
</metadata>
<g transform="translate(0.000000,1024.000000) scale(0.100000,-0.100000)"
fill="#000000" stroke="none">
<path d="M0 9203 l1 -1038 35 68 c37 73 45 79 276 221 43 26 96 62 119 81 36
31 47 35 97 35 32 -1 86 -7 122 -15 101 -22 128 -19 220 25 46 23 127 56 180
75 54 18 155 61 226 96 71 34 165 79 209 100 69 33 95 53 194 154 108 111 114
115 132 99 10 -9 28 -46 40 -83 45 -139 84 -195 249 -366 86 -88 266 -290 400
-450 135 -159 312 -366 394 -460 179 -204 239 -294 386 -575 126 -241 167
-310 248 -424 79 -111 291 -327 457 -466 77 -65 152 -131 167 -146 56 -60 58
-75 54 -411 -2 -169 -9 -355 -15 -413 -6 -58 -27 -310 -46 -560 -116 -1507
-159 -1787 -385 -2525 -217 -706 -362 -1037 -624 -1425 -138 -205 -255 -350
-454 -567 -73 -79 -110 -113 -232 -212 l-25 -20 89 -1 88 0 158 158 c219 219
375 420 545 700 325 537 582 1246 764 2107 l38 180 82 1 c113 2 118 8 123 133
3 94 4 99 36 135 17 20 32 38 32 39 1 1 5 46 9 100 11 113 25 143 75 152 52
10 93 40 118 87 22 40 23 54 23 226 l0 184 31 13 c46 19 112 82 136 129 13 25
21 61 22 93 0 44 -5 60 -38 107 -34 50 -38 61 -37 118 0 35 5 90 11 123 14 86
12 134 -9 180 -10 22 -21 52 -24 67 -6 24 -4 28 20 33 176 38 285 206 333 516
12 73 14 77 42 83 46 9 76 52 105 148 25 81 29 88 53 88 65 0 100 61 100 173
0 107 15 169 65 277 70 151 76 218 24 291 -21 30 -21 32 -5 65 24 52 21 131
-9 190 -13 27 -63 92 -110 144 -112 124 -160 197 -184 277 -11 36 -39 92 -61
125 -39 55 -65 138 -44 138 5 0 47 -14 94 -30 101 -35 169 -39 195 -10 23 25
23 101 0 171 -27 83 -117 236 -194 333 -91 112 -93 116 -95 200 -3 95 -45 183
-166 346 -50 69 -101 142 -111 162 l-19 37 42 11 c63 15 92 32 102 61 15 45
-3 79 -89 169 -96 100 -107 124 -76 173 29 48 27 100 -10 177 -49 104 -104
177 -234 310 -153 157 -159 168 -150 276 8 94 -6 136 -71 225 l-36 49 -2104 0
-2104 0 0 -1037z"/>
<path d="M7310 9579 c-159 -32 -302 -193 -356 -399 -21 -84 -22 -209 -1 -281
19 -64 80 -140 136 -168 121 -61 280 -13 421 129 205 205 239 504 74 649 -69
61 -181 89 -274 70z m163 -55 c90 -30 157 -138 157 -250 0 -150 -133 -345
-288 -421 -76 -37 -181 -44 -228 -14 -96 60 -136 210 -99 369 18 76 35 111 88
180 99 130 237 181 370 136z"/>
<path d="M8420 9439 c-66 -13 -98 -27 -165 -74 -132 -93 -236 -235 -319 -437
-118 -288 -70 -493 140 -605 236 -125 451 -61 656 195 76 95 145 216 174 306
89 274 -51 552 -306 610 -75 17 -111 18 -180 5z m195 -66 c151 -53 250 -182
262 -344 7 -88 -23 -206 -83 -329 -86 -174 -241 -298 -419 -335 -89 -19 -129
-19 -191 0 -210 62 -277 359 -145 649 64 142 186 292 270 336 93 47 211 56
306 23z"/>
<path d="M6303 9341 c-86 -21 -114 -38 -153 -93 -92 -127 -82 -360 20 -452 91
-82 212 -69 328 37 90 83 162 230 162 331 0 48 -28 112 -61 143 -60 55 -160
66 -296 34z m199 -33 c22 -6 51 -25 65 -42 23 -28 25 -36 21 -101 -6 -90 -41
-168 -101 -229 -53 -53 -130 -94 -190 -102 -37 -5 -47 -2 -76 22 -87 73 -94
223 -17 372 36 69 193 112 298 80z"/>
<path d="M5545 9015 c-155 -41 -221 -292 -106 -406 91 -91 236 -68 348 55 75
82 101 174 69 250 -40 96 -171 139 -311 101z m168 -29 c65 -27 95 -96 75 -175
-17 -67 -96 -144 -168 -165 -111 -32 -200 29 -200 136 0 79 75 166 174 200 62
21 78 22 119 4z"/>
<path d="M10081 8749 c-129 -22 -259 -79 -420 -186 -99 -66 -227 -189 -237
-227 -7 -30 -10 -30 -129 -11 -369 61 -636 -85 -747 -407 l-23 -68 -117 0
c-205 0 -398 -39 -547 -111 -99 -48 -203 -144 -260 -241 -43 -75 -89 -209 -97
-285 l-6 -59 -47 -17 c-85 -30 -213 -118 -302 -206 -143 -144 -208 -307 -196
-495 4 -50 9 -100 12 -111 5 -16 -2 -25 -35 -44 -104 -59 -233 -208 -306 -356
-110 -222 -93 -410 48 -541 l60 -55 -59 -62 c-106 -114 -163 -270 -163 -451 0
-169 39 -274 135 -365 l51 -48 -58 -77 c-127 -168 -189 -320 -191 -466 0 -58
5 -103 17 -140 25 -73 97 -181 151 -226 l44 -36 -34 -69 c-62 -122 -87 -226
-92 -384 -7 -212 30 -334 134 -438 46 -46 147 -107 178 -107 11 0 15 -6 11
-17 -25 -87 -29 -124 -29 -238 0 -338 139 -569 357 -592 l51 -5 37 -148 c108
-438 275 -648 543 -684 l87 -11 19 -73 c41 -162 152 -304 276 -353 50 -21 75
-24 183 -23 109 0 134 4 199 27 l75 26 64 -55 c221 -188 393 -264 599 -264
101 0 212 18 276 45 28 12 34 10 109 -41 l79 -54 152 1 c151 1 152 1 91 14
-131 28 -229 97 -278 194 l-25 49 -74 -23 c-166 -53 -343 -58 -482 -15 -146
46 -320 159 -428 280 -25 27 -50 50 -55 50 -6 0 -50 -19 -99 -42 -81 -39 -96
-43 -180 -46 -110 -5 -175 12 -244 62 -84 61 -153 196 -183 355 -11 56 -15 66
-32 63 -68 -12 -161 -13 -201 -2 -176 50 -331 304 -407 667 l-22 108 -75 6
c-86 7 -129 23 -181 70 -97 87 -151 244 -152 434 0 127 12 190 46 236 11 15
18 32 14 37 -3 6 -29 18 -56 27 -63 21 -146 95 -183 163 -85 156 -90 423 -12
652 14 40 34 88 45 107 11 19 20 38 20 42 0 5 -32 34 -70 65 -82 67 -123 131
-140 221 -16 83 -3 145 62 300 89 212 120 265 189 315 l40 28 -55 16 c-67 20
-135 90 -163 169 -30 87 -24 243 16 402 49 194 78 247 161 292 50 28 49 47 0
62 -55 16 -111 74 -133 138 -93 261 70 602 374 785 54 33 55 34 37 53 -66 69
-36 279 64 450 81 137 231 260 346 281 22 4 34 13 37 28 3 11 12 55 20 96 37
183 98 307 191 389 61 54 114 81 234 119 178 56 243 67 408 67 83 0 152 4 152
9 0 5 20 50 43 100 102 213 240 329 440 370 97 20 146 20 282 -4 l110 -19 29
37 c58 73 162 169 240 221 143 97 282 151 519 205 23 5 27 11 27 41 l0 35 -52
-1 c-29 -1 -77 -5 -107 -10z"/>
<path d="M2070 7049 c-206 -18 -427 -74 -617 -155 -166 -71 -268 -136 -346
-223 -53 -58 -50 -98 10 -177 l24 -32 67 20 c37 11 184 66 327 123 361 144
477 176 712 197 235 21 423 -9 732 -117 186 -65 284 -108 338 -150 72 -55 123
-60 123 -12 0 32 -43 89 -124 164 -292 273 -749 406 -1246 362z"/>
<path d="M8213 6600 c-79 -18 -200 -125 -246 -216 -34 -68 -46 -108 -56 -189
-24 -198 47 -343 206 -423 83 -42 153 -55 275 -51 97 4 110 7 181 42 111 55
182 149 212 280 l11 52 60 9 c32 5 357 9 721 10 l663 1 0 26 0 26 -327 7
c-183 3 -430 2 -558 -4 -126 -5 -303 -10 -391 -10 l-161 0 -5 83 c-6 101 -35
165 -105 227 -56 49 -186 114 -261 129 -59 12 -170 13 -219 1z m218 -44 c131
-28 260 -121 296 -215 37 -94 9 -281 -61 -406 -89 -162 -319 -203 -509 -92
-86 50 -151 155 -178 283 -14 68 -3 113 57 241 49 103 137 169 257 192 60 12
65 12 138 -3z"/>
<path d="M8472 6043 c-71 -68 -102 -105 -102 -120 0 -13 5 -23 11 -23 14 0
186 178 205 213 28 52 -10 29 -114 -70z"/>
<path d="M8529 5971 c-22 -21 -39 -44 -39 -50 0 -12 29 -15 55 -5 18 7 45 54
45 79 0 25 -20 17 -61 -24z"/>
<path d="M2000 5925 c-149 -33 -308 -104 -420 -188 -136 -101 -262 -244 -315
-358 -37 -80 -35 -89 24 -89 41 0 74 -13 207 -80 258 -129 397 -163 664 -163
291 1 489 64 792 253 61 39 117 70 125 70 64 0 -131 222 -319 361 -120 89
-202 134 -308 170 -87 29 -108 33 -240 35 -101 3 -165 -1 -210 -11z m288 -75
c52 -6 115 -19 143 -31 44 -19 52 -28 81 -87 32 -64 33 -71 33 -187 0 -111 -2
-124 -28 -177 -33 -67 -80 -111 -157 -147 -48 -23 -67 -26 -160 -26 -128 1
-193 23 -270 92 -115 103 -147 274 -84 434 25 62 132 113 269 128 39 5 72 9
75 9 3 1 47 -3 98 -8z m295 -91 c128 -65 263 -173 364 -291 l62 -73 -52 -33
c-165 -105 -348 -185 -525 -230 -98 -24 -123 -27 -297 -26 -247 0 -274 8 -660
188 -66 31 -121 60 -123 65 -4 12 82 114 145 172 92 86 294 221 309 206 3 -3
0 -25 -7 -48 -7 -24 -12 -87 -12 -139 0 -168 59 -267 201 -337 l76 -38 140 0
c133 0 144 1 191 27 67 35 118 90 152 163 26 55 28 69 28 180 -1 100 -4 129
-23 175 -12 30 -22 56 -22 58 0 5 13 1 53 -19z"/>
<path d="M2110 5710 c-50 -30 -73 -66 -78 -121 -6 -61 10 -99 59 -144 34 -31
46 -35 91 -35 113 0 197 120 155 222 -35 83 -151 123 -227 78z m151 -77 c26
-28 32 -60 19 -98 -16 -49 -30 -43 -30 13 0 29 -8 59 -20 80 -11 18 -20 35
-20 38 0 8 34 -13 51 -33z"/>
<path d="M8991 4970 c-65 -10 -178 -83 -224 -145 -45 -61 -85 -152 -99 -228
l-13 -69 -85 7 c-47 4 -157 1 -245 -5 -117 -8 -173 -8 -209 0 -41 9 -53 8 -73
-5 -22 -15 -23 -18 -10 -38 13 -20 23 -22 98 -21 46 0 125 4 175 9 59 5 137 3
221 -5 l131 -12 6 -51 c21 -153 147 -275 323 -312 280 -60 497 69 554 328 l12
58 344 -3 343 -3 0 26 0 26 -127 6 c-71 4 -223 7 -338 7 l-211 0 -12 81 c-14
95 -49 166 -107 216 -57 49 -188 111 -270 128 -76 16 -102 17 -184 5z m220
-56 c116 -35 220 -110 262 -188 56 -107 1 -383 -96 -484 -127 -133 -373 -128
-523 10 -55 50 -106 151 -123 241 -9 49 -7 66 10 125 41 132 102 221 181 263
87 47 199 60 289 33z"/>
<path d="M9255 4440 c-44 -38 -90 -82 -102 -97 -22 -27 -31 -73 -15 -73 10 0
174 168 196 200 17 26 20 40 9 39 -5 0 -44 -31 -88 -69z"/>
<path d="M9288 4347 c-33 -28 -52 -63 -38 -72 27 -17 90 37 90 76 0 25 -19 24
-52 -4z"/>
<path d="M1229 3205 c-4 -162 -5 -173 -32 -227 -24 -50 -35 -61 -85 -85 -53
-26 -67 -28 -232 -34 -130 -5 -199 -13 -270 -30 -75 -18 -125 -23 -235 -23
-138 -1 -187 7 -357 60 -16 5 -18 -2 -18 -50 l0 -55 43 -11 c23 -6 89 -25 147
-42 160 -48 206 -45 414 27 l168 58 137 2 c113 1 145 5 192 24 69 26 142 89
171 145 43 83 34 248 -21 369 l-18 42 -4 -170z"/>
<path d="M8591 3270 c-51 -12 -167 -96 -206 -151 -44 -59 -79 -143 -96 -228
l-12 -64 -113 6 c-101 5 -114 3 -129 -13 -16 -17 -15 -20 6 -41 20 -20 28 -21
100 -15 43 3 92 9 108 12 28 6 29 5 35 -48 8 -59 43 -144 81 -194 53 -69 181
-130 303 -144 255 -28 431 87 491 322 l19 73 531 -1 531 -1 0 27 0 27 -322 6
c-296 6 -377 5 -644 -8 l-91 -4 -5 74 c-10 146 -76 234 -235 314 -108 54 -252
75 -352 51z m273 -62 c112 -37 200 -109 239 -197 40 -92 -1 -330 -75 -432 -87
-121 -267 -162 -430 -100 -71 27 -160 106 -193 171 -64 127 -68 213 -14 342
40 99 92 159 173 198 104 51 185 56 300 18z"/>
<path d="M8872 2737 c-45 -40 -91 -85 -102 -102 -20 -30 -27 -65 -12 -65 11 0
188 182 201 207 26 52 11 44 -87 -40z"/>
<path d="M8929 2665 c-27 -14 -59 -56 -59 -75 0 -6 12 -10 27 -8 27 3 73 56
73 84 0 17 -8 17 -41 -1z"/>
<path d="M1710 1533 c-8 -3 -63 -37 -122 -75 -76 -49 -125 -74 -167 -84 -98
-22 -275 -43 -441 -50 -139 -6 -624 6 -882 22 l-98 6 0 -60 c0 -61 0 -61 33
-67 223 -38 893 -32 1205 10 113 16 261 53 312 80 38 20 137 112 172 159 40
56 36 77 -12 59z"/>
</g>
</svg>
